<svg width="90" height="90" viewBox="0 0 90 90" fill="none" xmlns="http://www.w3.org/2000/svg">
<path opacity="0.2" d="M78.75 64.6875V73.125C78.75 73.8709 78.4537 74.5863 77.9262 75.1137C77.3988 75.6412 76.6834 75.9375 75.9375 75.9375H67.5C66.7541 75.9375 66.0387 75.6412 65.5113 75.1137C64.9838 74.5863 64.6875 73.8709 64.6875 73.125V64.6875H78.75Z" fill="#355DFB"/>
<path opacity="0.2" d="M25.3125 64.6875V73.125C25.3125 73.8709 25.0162 74.5863 24.4887 75.1137C23.9613 75.6412 23.2459 75.9375 22.5 75.9375H14.0625C13.3166 75.9375 12.6012 75.6412 12.0738 75.1137C11.5463 74.5863 11.25 73.8709 11.25 73.125V64.6875H25.3125Z" fill="#355DFB"/>
<path opacity="0.2" d="M78.75 42.1875L68.2423 18.5452C68.0214 18.0481 67.661 17.6257 67.2048 17.3292C66.7486 17.0328 66.2163 16.875 65.6722 16.875H24.3278C23.7837 16.875 23.2514 17.0328 22.7952 17.3292C22.339 17.6257 21.9786 18.0481 21.7577 18.5452L11.25 42.1875H78.75Z" fill="#355DFB"/>
<path d="M5.625 42.1875H84.375" stroke="#355DFB" stroke-linecap="round" stroke-linejoin="round"/>
<path d="M78.75 64.6875V73.125C78.75 73.8709 78.4537 74.5863 77.9262 75.1137C77.3988 75.6412 76.6834 75.9375 75.9375 75.9375H67.5C66.7541 75.9375 66.0387 75.6412 65.5113 75.1137C64.9838 74.5863 64.6875 73.8709 64.6875 73.125V64.6875" stroke="#355DFB" stroke-linecap="round" stroke-linejoin="round"/>
<path d="M25.3125 64.6875V73.125C25.3125 73.8709 25.0162 74.5863 24.4887 75.1137C23.9613 75.6412 23.2459 75.9375 22.5 75.9375H14.0625C13.3166 75.9375 12.6012 75.6412 12.0738 75.1137C11.5463 74.5863 11.25 73.8709 11.25 73.125V64.6875" stroke="#355DFB" stroke-linecap="round" stroke-linejoin="round"/>
<path d="M22.5 53.4375H28.125" stroke="#355DFB" stroke-linecap="round" stroke-linejoin="round"/>
<path d="M61.875 53.4375H67.5" stroke="#355DFB" stroke-linecap="round" stroke-linejoin="round"/>
<path d="M78.75 42.1875L68.2423 18.5452C68.0214 18.0481 67.661 17.6257 67.2048 17.3292C66.7486 17.0328 66.2163 16.875 65.6722 16.875H24.3278C23.7837 16.875 23.2514 17.0328 22.7952 17.3292C22.339 17.6257 21.9786 18.0481 21.7577 18.5452L11.25 42.1875V64.6875H78.75V42.1875Z" stroke="#355DFB" stroke-linecap="round" stroke-linejoin="round"/>
</svg>
